<?xml version="1.0" encoding="UTF-8" standalone="no"?>
<!-- Created with Inkscape (http://www.inkscape.org/) -->

<svg
   width="33.941933mm"
   height="33.941029mm"
   viewBox="0 0 33.941933 33.941028"
   version="1.1"
   id="svg1"
   inkscape:export-filename="favicon.svg"
   inkscape:export-xdpi="96"
   inkscape:export-ydpi="96"
   xml:space="preserve"
   xmlns:inkscape="http://www.inkscape.org/namespaces/inkscape"
   xmlns:sodipodi="http://sodipodi.sourceforge.net/DTD/sodipodi-0.dtd"
   xmlns="http://www.w3.org/2000/svg"
   xmlns:svg="http://www.w3.org/2000/svg"><sodipodi:namedview
     id="namedview1"
     pagecolor="#ffffff"
     bordercolor="#000000"
     borderopacity="0.25"
     inkscape:showpageshadow="2"
     inkscape:pageopacity="0.0"
     inkscape:pagecheckerboard="0"
     inkscape:deskcolor="#d1d1d1"
     inkscape:document-units="mm"
     inkscape:zoom="1.4538721"
     inkscape:cx="-62.935387"
     inkscape:cy="149.2566"
     inkscape:window-width="1920"
     inkscape:window-height="1018"
     inkscape:window-x="-6"
     inkscape:window-y="-6"
     inkscape:window-maximized="1"
     inkscape:current-layer="layer1"
     showguides="true"><inkscape:page
       x="0"
       y="0"
       width="33.941933"
       height="33.941029"
       id="page2"
       margin="0"
       bleed="0" /></sodipodi:namedview><defs
     id="defs1" /><g
     inkscape:label="图层 1"
     inkscape:groupmode="layer"
     id="layer1"
     transform="translate(-34.0359,-54.0533)"><g
       id="path10"
       style="opacity:1"
       transform="translate(0,-0.75301672)"><g
         inkscape:label=""
         transform="matrix(0.641783,0,0,0.641783,32.943988,65.883088)"
         id="g23">
  <g
   fill="#000000"
   fill-opacity="1"
   id="g14"
   transform="matrix(0.352778,0,0,0.352778,-0.840435,-0.809846)">
    
    
    
    
    
    
  <g
   inkscape:label=""
   transform="matrix(4.41683,0,0,4.41683,7.2051157,-20.715596)"
   id="g21"><g
   fill="#000000"
   fill-opacity="1"
   id="g5"
   transform="matrix(0.352778,0,0,0.352778,-0.840435,-0.809492)">
    <g
   id="use4"
   transform="translate(1.993,27.653999)">
      <path
   d="m 5.203125,0.5 c 2.9375,0 6.375,-3.265625 6.375,-5.625 0,-0.21875 -0.140625,-0.390625 -0.359375,-0.390625 -0.203125,0 -0.5,0.140625 -0.671875,0.421875 -0.828125,1 -1.9375,1.65625 -3.265625,1.65625 -1.578125,0 -2.546875,-1.046875 -2.515625,-2.796875 0.078125,-3.703125 2.15625,-7.75 4.15625,-7.75 0.609375,0 1.265625,0.71875 1.734375,1.546875 0.5,0.859375 0.671875,1.0625 1.0625,1.0625 0.6875,0 1.484375,-1.0625 1.484375,-2 0,-1.21875 -1.265625,-2.15625 -3.09375,-2.15625 -5.40625,0 -9.578125,5.34375 -9.71875,11.15625 -0.0625,2.6875 2.15625,4.875 4.8125,4.875 z m 0,0"
   id="path7-1" />
    </g>
  </g>
  <g
   fill="#000000"
   fill-opacity="1"
   id="g7"
   transform="matrix(0.352778,0,0,0.352778,-0.840435,-0.809492)">
    <g
   id="use5"
   transform="translate(14.259001,27.653999)">
      <path
   d="m 3.546875,0.53125 c 0.6875,0 1.40625,-0.640625 2.296875,-2.078125 2.875,-4.40625 6.5625,-11.390625 8.171875,-11.390625 0.65625,0 0.9375,0.53125 0.9375,1.3125 0,3.15625 -1.6875,10.078125 -2.9375,10.078125 -0.46875,0 -0.828125,-0.390625 -1.1875,-0.671875 C 10.46875,-2.546875 10.296875,-2.875 9.75,-2.875 9.1875,-2.875 8.5,-1.5 8.5,-1.140625 8.5,-0.53125 9.75,0.5 10.6875,0.5 c 1.078125,0 4.765625,-2.40625 5.40625,-3.21875 1.984375,-2.515625 3.625,-5.921875 3.625,-9.6875 0,-1.71875 -1,-3.15625 -2.9375,-3.15625 -2.828125,0 -6.203125,3.296875 -8.828125,7.421875 C 7.78125,-7.859375 7.5,-7.859375 7.609375,-8.21875 l 4.984375,-15.234375 c 0.171875,-0.46875 0.3125,-0.859375 0.3125,-1.4375 0,-0.46875 -0.578125,-0.46875 -0.921875,-0.46875 -0.765625,0 -4.703125,1.15625 -5.8125,1.515625 -0.859375,0.3125 -0.9375,0.5 -0.9375,0.75 0,0.28125 0.328125,0.390625 0.6875,0.53125 0.640625,0.265625 1.390625,0.546875 1.390625,1.1875 0,0.609375 -0.171875,1.296875 -0.390625,2.046875 l -4.8125,15.5625 c -0.3125,1.046875 -0.5,1.796875 -0.5,2.578125 0,1.046875 1.328125,1.71875 1.9375,1.71875 z m 0,0"
   id="path8" />
    </g>
    <g
   id="use6"
   transform="translate(34.451279,27.653999)">
      <path
   d="m 1.359375,0.5 c 2.046875,0 4.5625,-1.828125 8.28125,-6.0625 C 9.75,-5.703125 9.96875,-5.515625 9.859375,-5.265625 9.4375,-4.234375 8.828125,-2.875 8.640625,-2.296875 8.53125,-1.9375 8.46875,-1.65625 8.46875,-1.46875 c 0,0.890625 1.25,1.96875 2.359375,1.96875 1.109375,0 2.90625,-0.890625 4.65625,-2.328125 1.4375,-1.1875 2.40625,-2.46875 2.40625,-3.15625 0,-0.328125 -0.171875,-0.578125 -0.390625,-0.578125 -0.07813,0 -0.07813,0 -0.1875,0.109375 -1.171875,1.21875 -2.4375,2.15625 -2.96875,2.15625 -0.4375,0 -0.609375,-0.359375 -0.390625,-0.9375 l 3.578125,-9.75 c 0.04687,-0.109375 0.07813,-0.25 0.07813,-0.359375 0,-0.609375 -1.578125,-1.546875 -2.65625,-1.546875 -0.46875,0 -0.75,0.140625 -0.890625,0.40625 -0.07813,0.28125 -0.1875,0.453125 -0.546875,1.140625 -0.140625,0.25 -0.109375,0.25 -0.21875,0.25 -0.0625,0 -0.03125,0.03125 -0.359375,-0.328125 -0.703125,-0.5625 -1.5,-0.921875 -2.109375,-0.921875 -0.890625,0 -2.875,1.5 -4.953125,3.765625 C 0.82813,-6.03125 -0.85937,-3.4375 -0.85937,-1.328125 -0.859375,-0.5 0.359375,0.5 1.359375,0.5 Z M 5.125,-3.296875 c -0.671875,0 -1.078125,-0.46875 -1.078125,-1.25 0,-1.90625 1.375,-4.703125 2.84375,-6.203125 C 8,-11.90625 9.5,-12.90625 10.21875,-12.90625 c 0.328125,0 0.859375,0.28125 1.328125,0.640625 0.46875,0.390625 0.71875,0.6875 0.71875,0.9375 0,0.609375 -0.96875,2.1875 -2.515625,4.046875 -1.828125,2.296875 -3.828125,3.984375 -4.625,3.984375 z m 0,0"
   id="path9" />
    </g>
    <g
   id="use7"
   transform="translate(53.854511,27.653999)">
      <path
   d="m 5.5625,0.5 c 6.59375,0 10.5,-6.5625 10.5,-10.90625 0,-3.21875 -2.109375,-5.125 -5.3125,-5.125 -6.453125,0 -10.390625,6.5625 -10.390625,10.9375 0,3.046875 2.46875,5.09375 5.203125,5.09375 z m 0.671875,-1.390625 c -0.71875,0 -1.25,-0.515625 -1.25,-1.578125 0,-4.375 3.1875,-11.734375 5.234375,-11.734375 0.859375,0 1.21875,0.546875 1.21875,1.515625 0,4.296875 -2.859375,11.796875 -5.203125,11.796875 z m 0,0"
   id="path10-1" />
    </g>
  </g>
</g><g
   inkscape:label=""
   transform="matrix(4.41683,0,0,4.41683,31.953171,25.001316)"
   id="g22"><g
   fill="#000000"
   fill-opacity="1"
   id="g6"
   transform="matrix(0.352778,0,0,0.352778,-1.29813,-0.626489)">
    <g
   id="use4-1"
   transform="translate(1.993,24.979)">
      <path
   d="m 4.15625,0.5 c 0.859375,0 1.609375,-1 2.375,-2.296875 1.328125,-2.328125 3.796875,-6.421875 4.65625,-7.59375 1.296875,-1.875 2.515625,-3.8125 3.4375,-3.8125 0.546875,0 0.609375,0.4375 0.296875,1.328125 -1.328125,3.5625 -3.15625,6.921875 -4.703125,10.4375 -0.390625,0.90625 0.75,1.9375 1.71875,1.9375 2.484375,0 5.640625,-1.828125 7.75,-4.34375 0.28125,-0.390625 0.46875,-0.8125 0.46875,-1.28125 0,-0.21875 -0.21875,-0.4375 -0.359375,-0.4375 -0.140625,0 -0.46875,0.296875 -0.6875,0.546875 -0.5,0.46875 -2.21875,1.828125 -2.796875,1.828125 -0.390625,0 -0.5,-0.328125 -0.140625,-1.109375 l 2.6875,-6.359375 c 0.9375,-2.109375 0.5,-4.875 -2.25,-4.875 -2.984375,0 -5.5,3.40625 -8,7.890625 -0.1875,0.296875 -0.796875,0.25 -0.65625,-0.109375 l 1.90625,-4.6875 c 0.609375,-1.46875 -0.03125,-3.09375 -1.796875,-3.09375 -2.25,0 -3.828125,0.90625 -4.984375,2.015625 -0.5,0.46875 -1.421875,1.71875 -1.390625,2.21875 0.0625,0.4375 0.53125,0.4375 0.75,0.1875 C 3.515625,-12.375 4.84375,-12.375 5.34375,-12.375 c 0.46875,0 0.53125,0.328125 0.328125,0.90625 l -3.625,9 C 1.359375,-0.828125 3.375,0.5 4.15625,0.5 Z m 0,0"
   id="path8-1" />
    </g>
    <g
   id="use5-1"
   transform="translate(23.440569,24.979)">
      <path
   d="m 2.359375,1.078125 c 1.984375,0 3.59375,-1.546875 3.59375,-3.34375 0,-1.21875 -0.828125,-2.546875 -2.40625,-2.546875 -1.859375,0 -3.46875,1.6875 -3.46875,3.5625 0,1.21875 1,2.328125 2.28125,2.328125 z m 0,0"
   id="path9-1" />
    </g>
    <g
   id="use6-1"
   transform="translate(33.052525,24.979)">
      <path
   d="m 9.6875,-18.078125 c 1.578125,0 2.9375,-1.359375 2.9375,-2.9375 0,-1.03125 -0.6875,-2.1875 -1.828125,-2.1875 -1.6875,0 -3.015625,1.515625 -3.015625,3.125 0,1.03125 0.828125,2 1.90625,2 z M 3.078125,0.5 c 2.625,0 7.359375,-3.9375 7.359375,-5.65625 0,-0.265625 -0.21875,-0.515625 -0.46875,-0.515625 -0.078125,0 -0.109375,0.078125 -0.140625,0.109375 -1,1.015625 -3.09375,2.515625 -3.65625,2.515625 -0.109375,0 -0.25,-0.109375 -0.25,-0.28125 0,-0.15625 0.03125,-0.359375 0.109375,-0.546875 l 4.015625,-9.890625 C 10.359375,-14.625 9,-15.8125 7.953125,-15.421875 c -1.96875,0.75 -6.515625,4.015625 -6.515625,4.953125 0,0.359375 0.28125,0.640625 0.890625,0.28125 0.796875,-0.46875 1.71875,-1.03125 2.265625,-1.03125 0.140625,0 0.21875,0.0625 0.171875,0.203125 C 3.625,-8.28125 2.4375,-5.234375 1.078125,-2.1875 c -0.140625,0.28125 -0.1875,0.53125 -0.1875,0.75 0,0.859375 1.046875,1.9375 2.1875,1.9375 z m 0,0"
   id="path10-1-1" />
    </g>
  </g>
  <g
   fill="#000000"
   fill-opacity="1"
   id="g8"
   transform="matrix(0.352778,0,0,0.352778,-1.29813,-0.626489)">
    <g
   id="use7-1"
   transform="translate(44.421886,24.979)">
      <path
   d="m 4.15625,0.5 c 0.859375,0 1.609375,-1 2.375,-2.296875 1.328125,-2.328125 3.796875,-6.421875 4.65625,-7.59375 1.296875,-1.875 2.515625,-3.8125 3.4375,-3.8125 0.546875,0 0.609375,0.4375 0.296875,1.328125 -1.328125,3.5625 -3.15625,6.921875 -4.703125,10.4375 -0.390625,0.90625 0.75,1.9375 1.71875,1.9375 2.484375,0 5.640625,-1.828125 7.75,-4.34375 0.28125,-0.390625 0.46875,-0.8125 0.46875,-1.28125 0,-0.21875 -0.21875,-0.4375 -0.359375,-0.4375 -0.140625,0 -0.46875,0.296875 -0.6875,0.546875 -0.5,0.46875 -2.21875,1.828125 -2.796875,1.828125 -0.390625,0 -0.5,-0.328125 -0.140625,-1.109375 l 2.6875,-6.359375 c 0.9375,-2.109375 0.5,-4.875 -2.25,-4.875 -2.984375,0 -5.5,3.40625 -8,7.890625 -0.1875,0.296875 -0.796875,0.25 -0.65625,-0.109375 l 1.90625,-4.6875 c 0.609375,-1.46875 -0.03125,-3.09375 -1.796875,-3.09375 -2.25,0 -3.828125,0.90625 -4.984375,2.015625 -0.5,0.46875 -1.421875,1.71875 -1.390625,2.21875 0.0625,0.4375 0.53125,0.4375 0.75,0.1875 C 3.515625,-12.375 4.84375,-12.375 5.34375,-12.375 c 0.46875,0 0.53125,0.328125 0.328125,0.90625 l -3.625,9 C 1.359375,-0.828125 3.375,0.5 4.15625,0.5 Z m 0,0"
   id="path11" />
    </g>
    <g
   id="use8"
   transform="translate(65.869453,24.979)">
      <path
   d="m 4.34375,10.40625 c 4.484375,0 9.28125,-2.796875 9.28125,-5.59375 0,-0.9375 -0.640625,-1.84375 -1.796875,-2.625 C 10.21875,1.109375 8.0625,-0.109375 6.703125,-1.046875 5.84375,-1.65625 5.3125,-2.15625 5.3125,-2.71875 c 0,-0.1875 0.109375,-0.46875 0.359375,-0.609375 C 5.875,-3.4375 6.390625,-3.375 6.84375,-3.375 c 4.34375,0 7.609375,-4.046875 7.609375,-7.890625 0,-0.3125 -0.03125,-0.640625 -0.109375,-0.96875 -0.109375,-0.359375 0.140625,-0.390625 0.390625,-0.390625 0.796875,0 1.796875,0.25 2.4375,0.25 0.546875,0 0.96875,-0.640625 0.96875,-1.5 0,-0.75 -0.609375,-0.96875 -0.921875,-0.96875 -0.96875,0 -2.15625,0.578125 -3.375,0.578125 -0.390625,0 -1.046875,-0.359375 -1.796875,-0.65625 -0.671875,-0.28125 -1.5,-0.609375 -2.40625,-0.609375 -5.265625,0 -8.0625,4.671875 -8.0625,7.671875 0,1.90625 1.46875,3.265625 2.765625,3.875 0.203125,0.109375 0.359375,0.1875 0.359375,0.296875 0,0.109375 -0.1875,0.28125 -0.46875,0.453125 -1.609375,0.875 -2.90625,1.625 -2.90625,2.703125 0,0.96875 0.96875,1.890625 1.9375,2.46875 0.21875,0.109375 0.171875,0.25 -0.078125,0.328125 -3.765625,1 -6.84375,2.390625 -6.84375,4.40625 0,2.15625 3.578125,3.734375 8,3.734375 z M 6.234375,-4.8125 c -0.46875,-0.03125 -0.8125,-0.5 -0.8125,-1.53125 0,-2.375 2.796875,-8.03125 4.65625,-8.03125 0.53125,0 0.96875,0.609375 0.96875,1.46875 0,2.4375 -2.734375,8.359375 -4.8125,8.09375 z M 5.875,9.109375 c -3.71875,0 -5.484375,-1.359375 -5.484375,-2.875 0,-1.640625 1.1875,-2.46875 3.484375,-3.109375 0.25,-0.078125 0.421875,-0.15625 0.71875,-0.15625 0.109375,0 0.359375,0.078125 0.53125,0.15625 0.828125,0.390625 2.484375,1.390625 3.484375,2.078125 0.609375,0.390625 1,1.03125 1,1.578125 0,1.328125 -1.828125,2.328125 -3.734375,2.328125 z m 0,0"
   id="path12" />
    </g>
  </g>
</g></g>
  
</g></g></g></svg>
